<svg width="650" height="247" viewBox="0 0 650 247" fill="none" xmlns="http://www.w3.org/2000/svg">
<g clip-path="url(#clip0_3_110)">
<rect width="650" height="247" fill="white"/>
<rect width="650" height="173" transform="translate(-1 74)" fill="white"/>
<path d="M59.582 116.482L61.2871 116.913C60.9297 118.313 60.2852 119.383 59.3535 120.121C58.4277 120.854 57.2939 121.22 55.9521 121.22C54.5635 121.22 53.4326 120.938 52.5596 120.376C51.6924 119.808 51.0303 118.987 50.5732 117.915C50.1221 116.843 49.8965 115.691 49.8965 114.461C49.8965 113.119 50.1514 111.95 50.6611 110.954C51.1768 109.952 51.9062 109.193 52.8496 108.678C53.7988 108.156 54.8418 107.896 55.9785 107.896C57.2676 107.896 58.3516 108.224 59.2305 108.88C60.1094 109.536 60.7217 110.459 61.0674 111.648L59.3887 112.044C59.0898 111.106 58.6562 110.424 58.0879 109.996C57.5195 109.568 56.8047 109.354 55.9434 109.354C54.9531 109.354 54.124 109.592 53.4561 110.066C52.7939 110.541 52.3281 111.18 52.0586 111.982C51.7891 112.779 51.6543 113.603 51.6543 114.452C51.6543 115.548 51.8125 116.506 52.1289 117.326C52.4512 118.141 52.9492 118.75 53.623 119.154C54.2969 119.559 55.0264 119.761 55.8115 119.761C56.7666 119.761 57.5752 119.485 58.2373 118.935C58.8994 118.384 59.3477 117.566 59.582 116.482ZM63.1943 121V108.115H64.7764V112.738C65.5146 111.883 66.4463 111.455 67.5713 111.455C68.2627 111.455 68.8633 111.593 69.373 111.868C69.8828 112.138 70.2461 112.513 70.4629 112.993C70.6855 113.474 70.7969 114.171 70.7969 115.085V121H69.2148V115.085C69.2148 114.294 69.042 113.72 68.6963 113.362C68.3564 112.999 67.873 112.817 67.2461 112.817C66.7773 112.817 66.335 112.94 65.9189 113.187C65.5088 113.427 65.2158 113.755 65.04 114.171C64.8643 114.587 64.7764 115.161 64.7764 115.894V121H63.1943ZM79.6035 117.994L81.2383 118.196C80.9805 119.151 80.5029 119.893 79.8057 120.42C79.1084 120.947 78.2178 121.211 77.1338 121.211C75.7686 121.211 74.6846 120.792 73.8818 119.954C73.085 119.11 72.6865 117.93 72.6865 116.412C72.6865 114.842 73.0908 113.623 73.8994 112.756C74.708 111.889 75.7568 111.455 77.0459 111.455C78.2939 111.455 79.3135 111.88 80.1045 112.729C80.8955 113.579 81.291 114.774 81.291 116.315C81.291 116.409 81.2881 116.55 81.2822 116.737H74.3213C74.3799 117.763 74.6699 118.548 75.1914 119.093C75.7129 119.638 76.3633 119.91 77.1426 119.91C77.7227 119.91 78.2178 119.758 78.6279 119.453C79.0381 119.148 79.3633 118.662 79.6035 117.994ZM74.4092 115.437H79.6211C79.5508 114.651 79.3516 114.062 79.0234 113.67C78.5195 113.061 77.8662 112.756 77.0635 112.756C76.3369 112.756 75.7246 112.999 75.2266 113.485C74.7344 113.972 74.4619 114.622 74.4092 115.437ZM89.623 117.994L91.2578 118.196C91 119.151 90.5225 119.893 89.8252 120.42C89.1279 120.947 88.2373 121.211 87.1533 121.211C85.7881 121.211 84.7041 120.792 83.9014 119.954C83.1045 119.11 82.7061 117.93 82.7061 116.412C82.7061 114.842 83.1104 113.623 83.9189 112.756C84.7275 111.889 85.7764 111.455 87.0654 111.455C88.3135 111.455 89.333 111.88 90.124 112.729C90.915 113.579 91.3105 114.774 91.3105 116.315C91.3105 116.409 91.3076 116.55 91.3018 116.737H84.3408C84.3994 117.763 84.6895 118.548 85.2109 119.093C85.7324 119.638 86.3828 119.91 87.1621 119.91C87.7422 119.91 88.2373 119.758 88.6475 119.453C89.0576 119.148 89.3828 118.662 89.623 117.994ZM84.4287 115.437H89.6406C89.5703 114.651 89.3711 114.062 89.043 113.67C88.5391 113.061 87.8857 112.756 87.083 112.756C86.3564 112.756 85.7441 112.999 85.2461 113.485C84.7539 113.972 84.4814 114.622 84.4287 115.437ZM93.2354 121V111.666H94.6592V113.081C95.0225 112.419 95.3564 111.982 95.6611 111.771C95.9717 111.561 96.3115 111.455 96.6807 111.455C97.2139 111.455 97.7559 111.625 98.3066 111.965L97.7617 113.433C97.375 113.204 96.9883 113.09 96.6016 113.09C96.2559 113.09 95.9453 113.195 95.6699 113.406C95.3945 113.611 95.1982 113.898 95.0811 114.268C94.9053 114.83 94.8174 115.445 94.8174 116.113V121H93.2354ZM98.6143 118.214L100.179 117.968C100.267 118.595 100.51 119.075 100.908 119.409C101.312 119.743 101.875 119.91 102.596 119.91C103.322 119.91 103.861 119.764 104.213 119.471C104.564 119.172 104.74 118.823 104.74 118.425C104.74 118.067 104.585 117.786 104.274 117.581C104.058 117.44 103.519 117.262 102.657 117.045C101.497 116.752 100.691 116.5 100.24 116.289C99.7949 116.072 99.4551 115.776 99.2207 115.401C98.9922 115.021 98.8779 114.602 98.8779 114.145C98.8779 113.729 98.9717 113.345 99.1592 112.993C99.3525 112.636 99.6133 112.34 99.9414 112.105C100.188 111.924 100.521 111.771 100.943 111.648C101.371 111.52 101.828 111.455 102.314 111.455C103.047 111.455 103.688 111.561 104.239 111.771C104.796 111.982 105.206 112.27 105.47 112.633C105.733 112.99 105.915 113.471 106.015 114.074L104.468 114.285C104.397 113.805 104.192 113.43 103.853 113.16C103.519 112.891 103.044 112.756 102.429 112.756C101.702 112.756 101.184 112.876 100.873 113.116C100.562 113.356 100.407 113.638 100.407 113.96C100.407 114.165 100.472 114.35 100.601 114.514C100.729 114.684 100.932 114.824 101.207 114.936C101.365 114.994 101.831 115.129 102.604 115.34C103.724 115.639 104.503 115.885 104.942 116.078C105.388 116.266 105.736 116.541 105.988 116.904C106.24 117.268 106.366 117.719 106.366 118.258C106.366 118.785 106.211 119.283 105.9 119.752C105.596 120.215 105.153 120.575 104.573 120.833C103.993 121.085 103.337 121.211 102.604 121.211C101.392 121.211 100.466 120.959 99.8271 120.455C99.1943 119.951 98.79 119.204 98.6143 118.214ZM108.66 121V119.198H110.462V121C110.462 121.662 110.345 122.195 110.11 122.6C109.876 123.01 109.504 123.326 108.994 123.549L108.555 122.872C108.889 122.726 109.135 122.509 109.293 122.222C109.451 121.94 109.539 121.533 109.557 121H108.66ZM50.415 144V131.115H56.1279C57.2764 131.115 58.1494 131.232 58.7471 131.467C59.3447 131.695 59.8223 132.103 60.1797 132.688C60.5371 133.274 60.7158 133.922 60.7158 134.631C60.7158 135.545 60.4199 136.315 59.8281 136.942C59.2363 137.569 58.3223 137.968 57.0859 138.138C57.5371 138.354 57.8799 138.568 58.1143 138.779C58.6123 139.236 59.084 139.808 59.5293 140.493L61.7705 144H59.626L57.9209 141.319C57.4229 140.546 57.0127 139.954 56.6904 139.544C56.3682 139.134 56.0781 138.847 55.8203 138.683C55.5684 138.519 55.3105 138.404 55.0469 138.34C54.8535 138.299 54.5371 138.278 54.0977 138.278H52.1201V144H50.415ZM52.1201 136.802H55.7852C56.5645 136.802 57.1738 136.723 57.6133 136.564C58.0527 136.4 58.3867 136.143 58.6152 135.791C58.8438 135.434 58.958 135.047 58.958 134.631C58.958 134.021 58.7354 133.521 58.29 133.128C57.8506 132.735 57.1533 132.539 56.1982 132.539H52.1201V136.802ZM62.6055 139.333C62.6055 137.604 63.0859 136.324 64.0469 135.492C64.8496 134.801 65.8281 134.455 66.9824 134.455C68.2656 134.455 69.3145 134.877 70.1289 135.721C70.9434 136.559 71.3506 137.719 71.3506 139.201C71.3506 140.402 71.1689 141.349 70.8057 142.04C70.4482 142.726 69.9238 143.259 69.2324 143.64C68.5469 144.021 67.7969 144.211 66.9824 144.211C65.6758 144.211 64.6182 143.792 63.8096 142.954C63.0068 142.116 62.6055 140.909 62.6055 139.333ZM64.2314 139.333C64.2314 140.528 64.4922 141.425 65.0137 142.022C65.5352 142.614 66.1914 142.91 66.9824 142.91C67.7676 142.91 68.4209 142.611 68.9424 142.014C69.4639 141.416 69.7246 140.505 69.7246 139.28C69.7246 138.126 69.4609 137.253 68.9336 136.661C68.4121 136.063 67.7617 135.765 66.9824 135.765C66.1914 135.765 65.5352 136.061 65.0137 136.652C64.4922 137.244 64.2314 138.138 64.2314 139.333ZM74.6729 144H73.2051V131.115H74.7871V135.712C75.4551 134.874 76.3076 134.455 77.3447 134.455C77.9189 134.455 78.4609 134.572 78.9707 134.807C79.4863 135.035 79.9082 135.36 80.2363 135.782C80.5703 136.198 80.8311 136.702 81.0186 137.294C81.2061 137.886 81.2998 138.519 81.2998 139.192C81.2998 140.792 80.9043 142.028 80.1133 142.901C79.3223 143.774 78.373 144.211 77.2656 144.211C76.1641 144.211 75.2998 143.751 74.6729 142.831V144ZM74.6553 139.263C74.6553 140.382 74.8076 141.19 75.1123 141.688C75.6104 142.503 76.2842 142.91 77.1338 142.91C77.8252 142.91 78.4229 142.611 78.9268 142.014C79.4307 141.41 79.6826 140.514 79.6826 139.324C79.6826 138.105 79.4395 137.206 78.9531 136.626C78.4727 136.046 77.8896 135.756 77.2041 135.756C76.5127 135.756 75.915 136.058 75.4111 136.661C74.9072 137.259 74.6553 138.126 74.6553 139.263ZM84.6924 144H83.2246V131.115H84.8066V135.712C85.4746 134.874 86.3271 134.455 87.3643 134.455C87.9385 134.455 88.4805 134.572 88.9902 134.807C89.5059 135.035 89.9277 135.36 90.2559 135.782C90.5898 136.198 90.8506 136.702 91.0381 137.294C91.2256 137.886 91.3193 138.519 91.3193 139.192C91.3193 140.792 90.9238 142.028 90.1328 142.901C89.3418 143.774 88.3926 144.211 87.2852 144.211C86.1836 144.211 85.3193 143.751 84.6924 142.831V144ZM84.6748 139.263C84.6748 140.382 84.8271 141.19 85.1318 141.688C85.6299 142.503 86.3037 142.91 87.1533 142.91C87.8447 142.91 88.4424 142.611 88.9463 142.014C89.4502 141.41 89.7021 140.514 89.7021 139.324C89.7021 138.105 89.459 137.206 88.9727 136.626C88.4922 136.046 87.9092 135.756 87.2236 135.756C86.5322 135.756 85.9346 136.058 85.4307 136.661C84.9268 137.259 84.6748 138.126 84.6748 139.263ZM93.1826 147.595L93.0068 146.109C93.3525 146.203 93.6543 146.25 93.9121 146.25C94.2637 146.25 94.5449 146.191 94.7559 146.074C94.9668 145.957 95.1396 145.793 95.2744 145.582C95.374 145.424 95.5352 145.031 95.7578 144.404C95.7871 144.316 95.834 144.188 95.8984 144.018L92.3564 134.666H94.0615L96.0039 140.071C96.2559 140.757 96.4814 141.478 96.6807 142.233C96.8623 141.507 97.0791 140.798 97.3311 140.106L99.3262 134.666H100.908L97.3574 144.158C96.9766 145.184 96.6807 145.89 96.4697 146.276C96.1885 146.798 95.8662 147.179 95.5029 147.419C95.1396 147.665 94.7061 147.788 94.2021 147.788C93.8975 147.788 93.5576 147.724 93.1826 147.595ZM102.253 144V134.666H103.677V135.993C104.362 134.968 105.353 134.455 106.647 134.455C107.21 134.455 107.726 134.558 108.194 134.763C108.669 134.962 109.023 135.226 109.258 135.554C109.492 135.882 109.656 136.271 109.75 136.723C109.809 137.016 109.838 137.528 109.838 138.261V144H108.256V138.322C108.256 137.678 108.194 137.197 108.071 136.881C107.948 136.559 107.729 136.304 107.412 136.116C107.102 135.923 106.735 135.826 106.313 135.826C105.64 135.826 105.057 136.04 104.564 136.468C104.078 136.896 103.835 137.707 103.835 138.902V144H102.253ZM117.537 144V131.115H119.242V136.406H125.939V131.115H127.645V144H125.939V137.927H119.242V144H117.537ZM129.701 139.333C129.701 137.604 130.182 136.324 131.143 135.492C131.945 134.801 132.924 134.455 134.078 134.455C135.361 134.455 136.41 134.877 137.225 135.721C138.039 136.559 138.446 137.719 138.446 139.201C138.446 140.402 138.265 141.349 137.901 142.04C137.544 142.726 137.02 143.259 136.328 143.64C135.643 144.021 134.893 144.211 134.078 144.211C132.771 144.211 131.714 143.792 130.905 142.954C130.103 142.116 129.701 140.909 129.701 139.333ZM131.327 139.333C131.327 140.528 131.588 141.425 132.109 142.022C132.631 142.614 133.287 142.91 134.078 142.91C134.863 142.91 135.517 142.611 136.038 142.014C136.56 141.416 136.82 140.505 136.82 139.28C136.82 138.126 136.557 137.253 136.029 136.661C135.508 136.063 134.857 135.765 134.078 135.765C133.287 135.765 132.631 136.061 132.109 136.652C131.588 137.244 131.327 138.138 131.327 139.333ZM140.274 144V131.115H141.856V144H140.274ZM144.282 144V131.115H145.864V144H144.282ZM154.416 142.849C153.83 143.347 153.265 143.698 152.72 143.903C152.181 144.108 151.601 144.211 150.979 144.211C149.954 144.211 149.166 143.962 148.615 143.464C148.064 142.96 147.789 142.318 147.789 141.539C147.789 141.082 147.892 140.666 148.097 140.291C148.308 139.91 148.58 139.605 148.914 139.377C149.254 139.148 149.635 138.976 150.057 138.858C150.367 138.776 150.836 138.697 151.463 138.621C152.74 138.469 153.681 138.287 154.284 138.076C154.29 137.859 154.293 137.722 154.293 137.663C154.293 137.019 154.144 136.564 153.845 136.301C153.44 135.943 152.84 135.765 152.043 135.765C151.299 135.765 150.748 135.896 150.391 136.16C150.039 136.418 149.778 136.878 149.608 137.54L148.062 137.329C148.202 136.667 148.434 136.134 148.756 135.729C149.078 135.319 149.544 135.006 150.153 134.789C150.763 134.566 151.469 134.455 152.271 134.455C153.068 134.455 153.716 134.549 154.214 134.736C154.712 134.924 155.078 135.161 155.312 135.448C155.547 135.729 155.711 136.087 155.805 136.521C155.857 136.79 155.884 137.276 155.884 137.979V140.089C155.884 141.56 155.916 142.491 155.98 142.884C156.051 143.271 156.186 143.643 156.385 144H154.732C154.568 143.672 154.463 143.288 154.416 142.849ZM154.284 139.315C153.71 139.55 152.849 139.749 151.7 139.913C151.05 140.007 150.59 140.112 150.32 140.229C150.051 140.347 149.843 140.52 149.696 140.748C149.55 140.971 149.477 141.22 149.477 141.495C149.477 141.917 149.635 142.269 149.951 142.55C150.273 142.831 150.742 142.972 151.357 142.972C151.967 142.972 152.509 142.84 152.983 142.576C153.458 142.307 153.807 141.94 154.029 141.478C154.199 141.12 154.284 140.593 154.284 139.896V139.315ZM158.345 144V134.666H159.769V135.993C160.454 134.968 161.444 134.455 162.739 134.455C163.302 134.455 163.817 134.558 164.286 134.763C164.761 134.962 165.115 135.226 165.35 135.554C165.584 135.882 165.748 136.271 165.842 136.723C165.9 137.016 165.93 137.528 165.93 138.261V144H164.348V138.322C164.348 137.678 164.286 137.197 164.163 136.881C164.04 136.559 163.82 136.304 163.504 136.116C163.193 135.923 162.827 135.826 162.405 135.826C161.731 135.826 161.148 136.04 160.656 136.468C160.17 136.896 159.927 137.707 159.927 138.902V144H158.345ZM174.42 144V142.822C173.828 143.748 172.958 144.211 171.81 144.211C171.065 144.211 170.38 144.006 169.753 143.596C169.132 143.186 168.648 142.614 168.303 141.882C167.963 141.144 167.793 140.297 167.793 139.342C167.793 138.41 167.948 137.566 168.259 136.811C168.569 136.049 169.035 135.466 169.656 135.062C170.277 134.657 170.972 134.455 171.739 134.455C172.302 134.455 172.803 134.575 173.242 134.815C173.682 135.05 174.039 135.357 174.314 135.738V131.115H175.888V144H174.42ZM169.419 139.342C169.419 140.537 169.671 141.431 170.175 142.022C170.679 142.614 171.273 142.91 171.959 142.91C172.65 142.91 173.236 142.629 173.717 142.066C174.203 141.498 174.446 140.634 174.446 139.474C174.446 138.196 174.2 137.259 173.708 136.661C173.216 136.063 172.609 135.765 171.889 135.765C171.186 135.765 170.597 136.052 170.122 136.626C169.653 137.2 169.419 138.105 169.419 139.342ZM50.4766 166V153.115H59.1689V154.636H52.1816V158.626H58.2285V160.146H52.1816V166H50.4766ZM60.6016 161.333C60.6016 159.604 61.082 158.324 62.043 157.492C62.8457 156.801 63.8242 156.455 64.9785 156.455C66.2617 156.455 67.3105 156.877 68.125 157.721C68.9395 158.559 69.3467 159.719 69.3467 161.201C69.3467 162.402 69.165 163.349 68.8018 164.04C68.4443 164.726 67.9199 165.259 67.2285 165.64C66.543 166.021 65.793 166.211 64.9785 166.211C63.6719 166.211 62.6143 165.792 61.8057 164.954C61.0029 164.116 60.6016 162.909 60.6016 161.333ZM62.2275 161.333C62.2275 162.528 62.4883 163.425 63.0098 164.022C63.5312 164.614 64.1875 164.91 64.9785 164.91C65.7637 164.91 66.417 164.611 66.9385 164.014C67.46 163.416 67.7207 162.505 67.7207 161.28C67.7207 160.126 67.457 159.253 66.9297 158.661C66.4082 158.063 65.7578 157.765 64.9785 157.765C64.1875 157.765 63.5312 158.061 63.0098 158.652C62.4883 159.244 62.2275 160.138 62.2275 161.333ZM77.3271 166V164.629C76.6006 165.684 75.6133 166.211 74.3652 166.211C73.8145 166.211 73.2988 166.105 72.8184 165.895C72.3438 165.684 71.9893 165.42 71.7549 165.104C71.5264 164.781 71.3652 164.389 71.2715 163.926C71.207 163.615 71.1748 163.123 71.1748 162.449V156.666H72.7568V161.843C72.7568 162.669 72.7891 163.226 72.8535 163.513C72.9531 163.929 73.1641 164.257 73.4863 164.497C73.8086 164.731 74.207 164.849 74.6816 164.849C75.1562 164.849 75.6016 164.729 76.0176 164.488C76.4336 164.242 76.7266 163.911 76.8965 163.495C77.0723 163.073 77.1602 162.464 77.1602 161.667V156.666H78.7422V166H77.3271ZM81.2295 166V156.666H82.6533V157.993C83.3389 156.968 84.3291 156.455 85.624 156.455C86.1865 156.455 86.7021 156.558 87.1709 156.763C87.6455 156.962 88 157.226 88.2344 157.554C88.4688 157.882 88.6328 158.271 88.7266 158.723C88.7852 159.016 88.8145 159.528 88.8145 160.261V166H87.2324V160.322C87.2324 159.678 87.1709 159.197 87.0479 158.881C86.9248 158.559 86.7051 158.304 86.3887 158.116C86.0781 157.923 85.7119 157.826 85.29 157.826C84.6162 157.826 84.0332 158.04 83.541 158.468C83.0547 158.896 82.8115 159.707 82.8115 160.902V166H81.2295ZM97.3047 166V164.822C96.7129 165.748 95.8428 166.211 94.6943 166.211C93.9502 166.211 93.2646 166.006 92.6377 165.596C92.0166 165.186 91.5332 164.614 91.1875 163.882C90.8477 163.144 90.6777 162.297 90.6777 161.342C90.6777 160.41 90.833 159.566 91.1436 158.811C91.4541 158.049 91.9199 157.466 92.541 157.062C93.1621 156.657 93.8564 156.455 94.624 156.455C95.1865 156.455 95.6875 156.575 96.127 156.815C96.5664 157.05 96.9238 157.357 97.1992 157.738V153.115H98.7725V166H97.3047ZM92.3037 161.342C92.3037 162.537 92.5557 163.431 93.0596 164.022C93.5635 164.614 94.1582 164.91 94.8438 164.91C95.5352 164.91 96.1211 164.629 96.6016 164.066C97.0879 163.498 97.3311 162.634 97.3311 161.474C97.3311 160.196 97.085 159.259 96.5928 158.661C96.1006 158.063 95.4941 157.765 94.7734 157.765C94.0703 157.765 93.4814 158.052 93.0068 158.626C92.5381 159.2 92.3037 160.105 92.3037 161.342ZM107.658 162.994L109.293 163.196C109.035 164.151 108.558 164.893 107.86 165.42C107.163 165.947 106.272 166.211 105.188 166.211C103.823 166.211 102.739 165.792 101.937 164.954C101.14 164.11 100.741 162.93 100.741 161.412C100.741 159.842 101.146 158.623 101.954 157.756C102.763 156.889 103.812 156.455 105.101 156.455C106.349 156.455 107.368 156.88 108.159 157.729C108.95 158.579 109.346 159.774 109.346 161.315C109.346 161.409 109.343 161.55 109.337 161.737H102.376C102.435 162.763 102.725 163.548 103.246 164.093C103.768 164.638 104.418 164.91 105.197 164.91C105.777 164.91 106.272 164.758 106.683 164.453C107.093 164.148 107.418 163.662 107.658 162.994ZM102.464 160.437H107.676C107.605 159.651 107.406 159.062 107.078 158.67C106.574 158.061 105.921 157.756 105.118 157.756C104.392 157.756 103.779 157.999 103.281 158.485C102.789 158.972 102.517 159.622 102.464 160.437ZM111.271 166V156.666H112.694V158.081C113.058 157.419 113.392 156.982 113.696 156.771C114.007 156.561 114.347 156.455 114.716 156.455C115.249 156.455 115.791 156.625 116.342 156.965L115.797 158.433C115.41 158.204 115.023 158.09 114.637 158.09C114.291 158.09 113.98 158.195 113.705 158.406C113.43 158.611 113.233 158.898 113.116 159.268C112.94 159.83 112.853 160.445 112.853 161.113V166H111.271ZM122.758 169.788V152.896H124.138V169.788H122.758ZM141.373 161.482L143.078 161.913C142.721 163.313 142.076 164.383 141.145 165.121C140.219 165.854 139.085 166.22 137.743 166.22C136.354 166.22 135.224 165.938 134.351 165.376C133.483 164.808 132.821 163.987 132.364 162.915C131.913 161.843 131.688 160.691 131.688 159.461C131.688 158.119 131.942 156.95 132.452 155.954C132.968 154.952 133.697 154.193 134.641 153.678C135.59 153.156 136.633 152.896 137.77 152.896C139.059 152.896 140.143 153.224 141.021 153.88C141.9 154.536 142.513 155.459 142.858 156.648L141.18 157.044C140.881 156.106 140.447 155.424 139.879 154.996C139.311 154.568 138.596 154.354 137.734 154.354C136.744 154.354 135.915 154.592 135.247 155.066C134.585 155.541 134.119 156.18 133.85 156.982C133.58 157.779 133.445 158.603 133.445 159.452C133.445 160.548 133.604 161.506 133.92 162.326C134.242 163.141 134.74 163.75 135.414 164.154C136.088 164.559 136.817 164.761 137.603 164.761C138.558 164.761 139.366 164.485 140.028 163.935C140.69 163.384 141.139 162.566 141.373 161.482ZM145.223 166V153.115H154.539V154.636H146.928V158.582H154.056V160.094H146.928V164.479H154.838V166H145.223ZM156.675 159.725C156.675 157.586 157.249 155.913 158.397 154.706C159.546 153.493 161.028 152.887 162.845 152.887C164.034 152.887 165.106 153.171 166.062 153.739C167.017 154.308 167.743 155.102 168.241 156.121C168.745 157.135 168.997 158.286 168.997 159.575C168.997 160.882 168.733 162.051 168.206 163.082C167.679 164.113 166.932 164.896 165.965 165.429C164.998 165.956 163.955 166.22 162.836 166.22C161.623 166.22 160.539 165.927 159.584 165.341C158.629 164.755 157.905 163.955 157.413 162.941C156.921 161.928 156.675 160.855 156.675 159.725ZM158.433 159.751C158.433 161.304 158.849 162.528 159.681 163.425C160.519 164.315 161.567 164.761 162.827 164.761C164.11 164.761 165.165 164.31 165.991 163.407C166.823 162.505 167.239 161.225 167.239 159.566C167.239 158.518 167.061 157.604 166.703 156.824C166.352 156.039 165.833 155.433 165.147 155.005C164.468 154.571 163.703 154.354 162.854 154.354C161.646 154.354 160.606 154.771 159.733 155.603C158.866 156.429 158.433 157.812 158.433 159.751ZM56.2773 185.581L57.833 185.783C57.6631 186.855 57.2266 187.696 56.5234 188.306C55.8262 188.909 54.9678 189.211 53.9482 189.211C52.6709 189.211 51.6426 188.795 50.8633 187.963C50.0898 187.125 49.7031 185.927 49.7031 184.368C49.7031 183.36 49.8701 182.479 50.2041 181.723C50.5381 180.967 51.0449 180.401 51.7246 180.026C52.4102 179.646 53.1543 179.455 53.957 179.455C54.9707 179.455 55.7998 179.713 56.4443 180.229C57.0889 180.738 57.502 181.465 57.6836 182.408L56.1455 182.646C55.999 182.019 55.7383 181.547 55.3633 181.23C54.9941 180.914 54.5459 180.756 54.0186 180.756C53.2217 180.756 52.5742 181.043 52.0762 181.617C51.5781 182.186 51.3291 183.088 51.3291 184.324C51.3291 185.578 51.5693 186.489 52.0498 187.058C52.5303 187.626 53.1572 187.91 53.9307 187.91C54.5518 187.91 55.0703 187.72 55.4863 187.339C55.9023 186.958 56.166 186.372 56.2773 185.581ZM65.5762 185.994L67.2109 186.196C66.9531 187.151 66.4756 187.893 65.7783 188.42C65.0811 188.947 64.1904 189.211 63.1064 189.211C61.7412 189.211 60.6572 188.792 59.8545 187.954C59.0576 187.11 58.6592 185.93 58.6592 184.412C58.6592 182.842 59.0635 181.623 59.8721 180.756C60.6807 179.889 61.7295 179.455 63.0186 179.455C64.2666 179.455 65.2861 179.88 66.0771 180.729C66.8682 181.579 67.2637 182.774 67.2637 184.315C67.2637 184.409 67.2607 184.55 67.2549 184.737H60.2939C60.3525 185.763 60.6426 186.548 61.1641 187.093C61.6855 187.638 62.3359 187.91 63.1152 187.91C63.6953 187.91 64.1904 187.758 64.6006 187.453C65.0107 187.148 65.3359 186.662 65.5762 185.994ZM60.3818 183.437H65.5938C65.5234 182.651 65.3242 182.062 64.9961 181.67C64.4922 181.061 63.8389 180.756 63.0361 180.756C62.3096 180.756 61.6973 180.999 61.1992 181.485C60.707 181.972 60.4346 182.622 60.3818 183.437ZM69.1709 189V176.115H70.7529V189H69.1709ZM73.1787 189V176.115H74.7607V189H73.1787ZM77.6699 189V187.198H79.4717V189H77.6699ZM86.8105 185.599L88.3926 185.388C88.5742 186.284 88.8818 186.932 89.3154 187.33C89.7549 187.723 90.2881 187.919 90.915 187.919C91.6592 187.919 92.2861 187.661 92.7959 187.146C93.3115 186.63 93.5693 185.991 93.5693 185.229C93.5693 184.503 93.332 183.905 92.8574 183.437C92.3828 182.962 91.7793 182.725 91.0469 182.725C90.748 182.725 90.376 182.783 89.9307 182.9L90.1064 181.512C90.2119 181.523 90.2969 181.529 90.3613 181.529C91.0352 181.529 91.6416 181.354 92.1807 181.002C92.7197 180.65 92.9893 180.108 92.9893 179.376C92.9893 178.796 92.793 178.315 92.4004 177.935C92.0078 177.554 91.501 177.363 90.8799 177.363C90.2646 177.363 89.752 177.557 89.3418 177.943C88.9316 178.33 88.668 178.91 88.5508 179.684L86.9688 179.402C87.1621 178.342 87.6016 177.521 88.2871 176.941C88.9727 176.355 89.8252 176.062 90.8447 176.062C91.5479 176.062 92.1953 176.215 92.7871 176.52C93.3789 176.818 93.8301 177.229 94.1406 177.75C94.457 178.271 94.6152 178.825 94.6152 179.411C94.6152 179.968 94.4658 180.475 94.167 180.932C93.8682 181.389 93.4258 181.752 92.8398 182.021C93.6016 182.197 94.1934 182.563 94.6152 183.12C95.0371 183.671 95.248 184.362 95.248 185.194C95.248 186.319 94.8379 187.274 94.0176 188.06C93.1973 188.839 92.1602 189.229 90.9062 189.229C89.7754 189.229 88.835 188.892 88.085 188.218C87.3408 187.544 86.916 186.671 86.8105 185.599ZM105.136 187.479V189H96.6191C96.6074 188.619 96.6689 188.253 96.8037 187.901C97.0205 187.321 97.3662 186.75 97.8408 186.188C98.3213 185.625 99.0127 184.975 99.915 184.236C101.315 183.088 102.262 182.18 102.754 181.512C103.246 180.838 103.492 180.202 103.492 179.604C103.492 178.978 103.267 178.45 102.815 178.022C102.37 177.589 101.787 177.372 101.066 177.372C100.305 177.372 99.6953 177.601 99.2383 178.058C98.7812 178.515 98.5498 179.147 98.5439 179.956L96.918 179.789C97.0293 178.576 97.4482 177.653 98.1748 177.021C98.9014 176.382 99.877 176.062 101.102 176.062C102.338 176.062 103.316 176.405 104.037 177.091C104.758 177.776 105.118 178.626 105.118 179.64C105.118 180.155 105.013 180.662 104.802 181.16C104.591 181.658 104.239 182.183 103.747 182.733C103.261 183.284 102.449 184.04 101.312 185.001C100.363 185.798 99.7539 186.34 99.4844 186.627C99.2148 186.908 98.9922 187.192 98.8164 187.479H105.136ZM112.8 189H111.218V178.919C110.837 179.282 110.336 179.646 109.715 180.009C109.1 180.372 108.546 180.645 108.054 180.826V179.297C108.938 178.881 109.712 178.377 110.374 177.785C111.036 177.193 111.505 176.619 111.78 176.062H112.8V189ZM117.748 189V187.198H119.55V189H117.748ZM122.107 186.021L123.628 185.88C123.757 186.595 124.003 187.113 124.366 187.436C124.729 187.758 125.195 187.919 125.764 187.919C126.25 187.919 126.675 187.808 127.038 187.585C127.407 187.362 127.709 187.066 127.943 186.697C128.178 186.322 128.374 185.818 128.532 185.186C128.69 184.553 128.77 183.908 128.77 183.252C128.77 183.182 128.767 183.076 128.761 182.936C128.444 183.439 128.011 183.85 127.46 184.166C126.915 184.477 126.323 184.632 125.685 184.632C124.618 184.632 123.716 184.245 122.978 183.472C122.239 182.698 121.87 181.679 121.87 180.413C121.87 179.106 122.254 178.055 123.021 177.258C123.795 176.461 124.762 176.062 125.922 176.062C126.76 176.062 127.524 176.288 128.216 176.739C128.913 177.19 129.44 177.835 129.798 178.673C130.161 179.505 130.343 180.712 130.343 182.294C130.343 183.94 130.164 185.253 129.807 186.231C129.449 187.204 128.916 187.945 128.207 188.455C127.504 188.965 126.678 189.22 125.729 189.22C124.721 189.22 123.897 188.941 123.259 188.385C122.62 187.822 122.236 187.034 122.107 186.021ZM128.585 180.334C128.585 179.426 128.342 178.705 127.855 178.172C127.375 177.639 126.795 177.372 126.115 177.372C125.412 177.372 124.8 177.659 124.278 178.233C123.757 178.808 123.496 179.552 123.496 180.466C123.496 181.286 123.742 181.954 124.234 182.47C124.732 182.979 125.345 183.234 126.071 183.234C126.804 183.234 127.404 182.979 127.873 182.47C128.348 181.954 128.585 181.242 128.585 180.334ZM134.324 182.013C133.668 181.772 133.182 181.43 132.865 180.984C132.549 180.539 132.391 180.006 132.391 179.385C132.391 178.447 132.728 177.659 133.401 177.021C134.075 176.382 134.972 176.062 136.091 176.062C137.216 176.062 138.121 176.391 138.807 177.047C139.492 177.697 139.835 178.491 139.835 179.429C139.835 180.026 139.677 180.548 139.36 180.993C139.05 181.433 138.575 181.772 137.937 182.013C138.728 182.271 139.328 182.687 139.738 183.261C140.154 183.835 140.362 184.521 140.362 185.317C140.362 186.419 139.973 187.345 139.193 188.095C138.414 188.845 137.389 189.22 136.117 189.22C134.846 189.22 133.82 188.845 133.041 188.095C132.262 187.339 131.872 186.398 131.872 185.273C131.872 184.436 132.083 183.735 132.505 183.173C132.933 182.604 133.539 182.218 134.324 182.013ZM134.008 179.332C134.008 179.941 134.204 180.439 134.597 180.826C134.989 181.213 135.499 181.406 136.126 181.406C136.735 181.406 137.233 181.216 137.62 180.835C138.013 180.448 138.209 179.977 138.209 179.42C138.209 178.84 138.007 178.354 137.603 177.961C137.204 177.562 136.706 177.363 136.108 177.363C135.505 177.363 135.004 177.557 134.605 177.943C134.207 178.33 134.008 178.793 134.008 179.332ZM133.498 185.282C133.498 185.733 133.604 186.17 133.814 186.592C134.031 187.014 134.351 187.342 134.772 187.576C135.194 187.805 135.648 187.919 136.135 187.919C136.891 187.919 137.515 187.676 138.007 187.189C138.499 186.703 138.745 186.085 138.745 185.335C138.745 184.573 138.49 183.943 137.98 183.445C137.477 182.947 136.844 182.698 136.082 182.698C135.338 182.698 134.72 182.944 134.228 183.437C133.741 183.929 133.498 184.544 133.498 185.282ZM142.015 177.803V176.282H150.355V177.513C149.535 178.386 148.721 179.546 147.912 180.993C147.109 182.44 146.488 183.929 146.049 185.458C145.732 186.536 145.53 187.717 145.442 189H143.816C143.834 187.986 144.033 186.762 144.414 185.326C144.795 183.891 145.34 182.508 146.049 181.178C146.764 179.842 147.522 178.717 148.325 177.803H142.015ZM152.816 189V187.198H154.618V189H152.816ZM159.373 182.013C158.717 181.772 158.23 181.43 157.914 180.984C157.598 180.539 157.439 180.006 157.439 179.385C157.439 178.447 157.776 177.659 158.45 177.021C159.124 176.382 160.021 176.062 161.14 176.062C162.265 176.062 163.17 176.391 163.855 177.047C164.541 177.697 164.884 178.491 164.884 179.429C164.884 180.026 164.726 180.548 164.409 180.993C164.099 181.433 163.624 181.772 162.985 182.013C163.776 182.271 164.377 182.687 164.787 183.261C165.203 183.835 165.411 184.521 165.411 185.317C165.411 186.419 165.021 187.345 164.242 188.095C163.463 188.845 162.438 189.22 161.166 189.22C159.895 189.22 158.869 188.845 158.09 188.095C157.311 187.339 156.921 186.398 156.921 185.273C156.921 184.436 157.132 183.735 157.554 183.173C157.981 182.604 158.588 182.218 159.373 182.013ZM159.057 179.332C159.057 179.941 159.253 180.439 159.646 180.826C160.038 181.213 160.548 181.406 161.175 181.406C161.784 181.406 162.282 181.216 162.669 180.835C163.062 180.448 163.258 179.977 163.258 179.42C163.258 178.84 163.056 178.354 162.651 177.961C162.253 177.562 161.755 177.363 161.157 177.363C160.554 177.363 160.053 177.557 159.654 177.943C159.256 178.33 159.057 178.793 159.057 179.332ZM158.547 185.282C158.547 185.733 158.652 186.17 158.863 186.592C159.08 187.014 159.399 187.342 159.821 187.576C160.243 187.805 160.697 187.919 161.184 187.919C161.939 187.919 162.563 187.676 163.056 187.189C163.548 186.703 163.794 186.085 163.794 185.335C163.794 184.573 163.539 183.943 163.029 183.445C162.525 182.947 161.893 182.698 161.131 182.698C160.387 182.698 159.769 182.944 159.276 183.437C158.79 183.929 158.547 184.544 158.547 185.282ZM172.029 189V185.915H166.439V184.465L172.319 176.115H173.611V184.465H175.352V185.915H173.611V189H172.029ZM172.029 184.465V178.655L167.995 184.465H172.029ZM176.978 182.646C176.978 181.122 177.133 179.897 177.443 178.972C177.76 178.04 178.226 177.322 178.841 176.818C179.462 176.314 180.241 176.062 181.179 176.062C181.87 176.062 182.477 176.203 182.998 176.484C183.52 176.76 183.95 177.161 184.29 177.688C184.63 178.21 184.896 178.849 185.09 179.604C185.283 180.354 185.38 181.368 185.38 182.646C185.38 184.157 185.225 185.379 184.914 186.311C184.604 187.236 184.138 187.954 183.517 188.464C182.901 188.968 182.122 189.22 181.179 189.22C179.937 189.22 178.961 188.774 178.252 187.884C177.402 186.812 176.978 185.065 176.978 182.646ZM178.604 182.646C178.604 184.761 178.85 186.17 179.342 186.873C179.84 187.57 180.452 187.919 181.179 187.919C181.905 187.919 182.515 187.567 183.007 186.864C183.505 186.161 183.754 184.755 183.754 182.646C183.754 180.524 183.505 179.115 183.007 178.418C182.515 177.721 181.899 177.372 181.161 177.372C180.435 177.372 179.854 177.68 179.421 178.295C178.876 179.08 178.604 180.53 178.604 182.646ZM195.312 187.479V189H186.795C186.783 188.619 186.845 188.253 186.979 187.901C187.196 187.321 187.542 186.75 188.017 186.188C188.497 185.625 189.188 184.975 190.091 184.236C191.491 183.088 192.438 182.18 192.93 181.512C193.422 180.838 193.668 180.202 193.668 179.604C193.668 178.978 193.442 178.45 192.991 178.022C192.546 177.589 191.963 177.372 191.242 177.372C190.48 177.372 189.871 177.601 189.414 178.058C188.957 178.515 188.726 179.147 188.72 179.956L187.094 179.789C187.205 178.576 187.624 177.653 188.351 177.021C189.077 176.382 190.053 176.062 191.277 176.062C192.514 176.062 193.492 176.405 194.213 177.091C194.934 177.776 195.294 178.626 195.294 179.64C195.294 180.155 195.188 180.662 194.978 181.16C194.767 181.658 194.415 182.183 193.923 182.733C193.437 183.284 192.625 184.04 191.488 185.001C190.539 185.798 189.93 186.34 189.66 186.627C189.391 186.908 189.168 187.192 188.992 187.479H195.312ZM50.415 211V198.115H56.1279C57.2764 198.115 58.1494 198.232 58.7471 198.467C59.3447 198.695 59.8223 199.103 60.1797 199.688C60.5371 200.274 60.7158 200.922 60.7158 201.631C60.7158 202.545 60.4199 203.315 59.8281 203.942C59.2363 204.569 58.3223 204.968 57.0859 205.138C57.5371 205.354 57.8799 205.568 58.1143 205.779C58.6123 206.236 59.084 206.808 59.5293 207.493L61.7705 211H59.626L57.9209 208.319C57.4229 207.546 57.0127 206.954 56.6904 206.544C56.3682 206.134 56.0781 205.847 55.8203 205.683C55.5684 205.519 55.3105 205.404 55.0469 205.34C54.8535 205.299 54.5371 205.278 54.0977 205.278H52.1201V211H50.415ZM52.1201 203.802H55.7852C56.5645 203.802 57.1738 203.723 57.6133 203.564C58.0527 203.4 58.3867 203.143 58.6152 202.791C58.8438 202.434 58.958 202.047 58.958 201.631C58.958 201.021 58.7354 200.521 58.29 200.128C57.8506 199.735 57.1533 199.539 56.1982 199.539H52.1201V203.802ZM62.6055 206.333C62.6055 204.604 63.0859 203.324 64.0469 202.492C64.8496 201.801 65.8281 201.455 66.9824 201.455C68.2656 201.455 69.3145 201.877 70.1289 202.721C70.9434 203.559 71.3506 204.719 71.3506 206.201C71.3506 207.402 71.1689 208.349 70.8057 209.04C70.4482 209.726 69.9238 210.259 69.2324 210.64C68.5469 211.021 67.7969 211.211 66.9824 211.211C65.6758 211.211 64.6182 210.792 63.8096 209.954C63.0068 209.116 62.6055 207.909 62.6055 206.333ZM64.2314 206.333C64.2314 207.528 64.4922 208.425 65.0137 209.022C65.5352 209.614 66.1914 209.91 66.9824 209.91C67.7676 209.91 68.4209 209.611 68.9424 209.014C69.4639 208.416 69.7246 207.505 69.7246 206.28C69.7246 205.126 69.4609 204.253 68.9336 203.661C68.4121 203.063 67.7617 202.765 66.9824 202.765C66.1914 202.765 65.5352 203.061 65.0137 203.652C64.4922 204.244 64.2314 205.138 64.2314 206.333ZM74.6729 211H73.2051V198.115H74.7871V202.712C75.4551 201.874 76.3076 201.455 77.3447 201.455C77.9189 201.455 78.4609 201.572 78.9707 201.807C79.4863 202.035 79.9082 202.36 80.2363 202.782C80.5703 203.198 80.8311 203.702 81.0186 204.294C81.2061 204.886 81.2998 205.519 81.2998 206.192C81.2998 207.792 80.9043 209.028 80.1133 209.901C79.3223 210.774 78.373 211.211 77.2656 211.211C76.1641 211.211 75.2998 210.751 74.6729 209.831V211ZM74.6553 206.263C74.6553 207.382 74.8076 208.19 75.1123 208.688C75.6104 209.503 76.2842 209.91 77.1338 209.91C77.8252 209.91 78.4229 209.611 78.9268 209.014C79.4307 208.41 79.6826 207.514 79.6826 206.324C79.6826 205.105 79.4395 204.206 78.9531 203.626C78.4727 203.046 77.8896 202.756 77.2041 202.756C76.5127 202.756 75.915 203.058 75.4111 203.661C74.9072 204.259 74.6553 205.126 74.6553 206.263ZM84.6924 211H83.2246V198.115H84.8066V202.712C85.4746 201.874 86.3271 201.455 87.3643 201.455C87.9385 201.455 88.4805 201.572 88.9902 201.807C89.5059 202.035 89.9277 202.36 90.2559 202.782C90.5898 203.198 90.8506 203.702 91.0381 204.294C91.2256 204.886 91.3193 205.519 91.3193 206.192C91.3193 207.792 90.9238 209.028 90.1328 209.901C89.3418 210.774 88.3926 211.211 87.2852 211.211C86.1836 211.211 85.3193 210.751 84.6924 209.831V211ZM84.6748 206.263C84.6748 207.382 84.8271 208.19 85.1318 208.688C85.6299 209.503 86.3037 209.91 87.1533 209.91C87.8447 209.91 88.4424 209.611 88.9463 209.014C89.4502 208.41 89.7021 207.514 89.7021 206.324C89.7021 205.105 89.459 204.206 88.9727 203.626C88.4922 203.046 87.9092 202.756 87.2236 202.756C86.5322 202.756 85.9346 203.058 85.4307 203.661C84.9268 204.259 84.6748 205.126 84.6748 206.263ZM93.1826 214.595L93.0068 213.109C93.3525 213.203 93.6543 213.25 93.9121 213.25C94.2637 213.25 94.5449 213.191 94.7559 213.074C94.9668 212.957 95.1396 212.793 95.2744 212.582C95.374 212.424 95.5352 212.031 95.7578 211.404C95.7871 211.316 95.834 211.188 95.8984 211.018L92.3564 201.666H94.0615L96.0039 207.071C96.2559 207.757 96.4814 208.478 96.6807 209.233C96.8623 208.507 97.0791 207.798 97.3311 207.106L99.3262 201.666H100.908L97.3574 211.158C96.9766 212.184 96.6807 212.89 96.4697 213.276C96.1885 213.798 95.8662 214.179 95.5029 214.419C95.1396 214.665 94.7061 214.788 94.2021 214.788C93.8975 214.788 93.5576 214.724 93.1826 214.595ZM102.253 211V201.666H103.677V202.993C104.362 201.968 105.353 201.455 106.647 201.455C107.21 201.455 107.726 201.558 108.194 201.763C108.669 201.962 109.023 202.226 109.258 202.554C109.492 202.882 109.656 203.271 109.75 203.723C109.809 204.016 109.838 204.528 109.838 205.261V211H108.256V205.322C108.256 204.678 108.194 204.197 108.071 203.881C107.948 203.559 107.729 203.304 107.412 203.116C107.102 202.923 106.735 202.826 106.313 202.826C105.64 202.826 105.057 203.04 104.564 203.468C104.078 203.896 103.835 204.707 103.835 205.902V211H102.253ZM121.29 209.567C120.909 210.007 120.481 210.361 120.007 210.631C119.538 210.895 119.066 211.026 118.592 211.026C118.07 211.026 117.563 210.874 117.071 210.569C116.579 210.265 116.178 209.796 115.867 209.163C115.562 208.53 115.41 207.836 115.41 207.08C115.41 206.148 115.647 205.217 116.122 204.285C116.603 203.348 117.197 202.645 117.906 202.176C118.615 201.707 119.304 201.473 119.972 201.473C120.481 201.473 120.968 201.607 121.431 201.877C121.894 202.141 122.292 202.545 122.626 203.09L122.925 201.728H124.498L123.232 207.625C123.057 208.445 122.969 208.899 122.969 208.987C122.969 209.146 123.027 209.283 123.145 209.4C123.268 209.512 123.414 209.567 123.584 209.567C123.895 209.567 124.302 209.389 124.806 209.031C125.474 208.562 126.001 207.936 126.388 207.15C126.78 206.359 126.977 205.545 126.977 204.707C126.977 203.729 126.725 202.814 126.221 201.965C125.723 201.115 124.976 200.436 123.979 199.926C122.989 199.416 121.894 199.161 120.692 199.161C119.321 199.161 118.067 199.483 116.931 200.128C115.8 200.767 114.921 201.687 114.294 202.888C113.673 204.083 113.362 205.366 113.362 206.737C113.362 208.173 113.673 209.409 114.294 210.446C114.921 211.483 115.823 212.248 117.001 212.74C118.185 213.238 119.494 213.487 120.93 213.487C122.465 213.487 123.751 213.229 124.788 212.714C125.825 212.198 126.602 211.571 127.117 210.833H128.708C128.409 211.448 127.896 212.075 127.17 212.714C126.443 213.353 125.579 213.856 124.577 214.226C123.575 214.601 122.368 214.788 120.956 214.788C119.655 214.788 118.454 214.621 117.353 214.287C116.257 213.953 115.322 213.449 114.549 212.775C113.775 212.107 113.192 211.337 112.8 210.464C112.308 209.356 112.062 208.161 112.062 206.878C112.062 205.448 112.354 204.086 112.94 202.791C113.655 201.203 114.669 199.987 115.981 199.144C117.3 198.3 118.896 197.878 120.771 197.878C122.225 197.878 123.528 198.177 124.683 198.774C125.843 199.366 126.757 200.251 127.425 201.429C127.993 202.442 128.277 203.544 128.277 204.733C128.277 206.433 127.68 207.941 126.484 209.26C125.418 210.443 124.252 211.035 122.986 211.035C122.582 211.035 122.254 210.974 122.002 210.851C121.756 210.728 121.574 210.552 121.457 210.323C121.381 210.177 121.325 209.925 121.29 209.567ZM117.036 207.186C117.036 207.988 117.227 208.612 117.607 209.058C117.988 209.503 118.425 209.726 118.917 209.726C119.245 209.726 119.591 209.629 119.954 209.436C120.317 209.236 120.663 208.943 120.991 208.557C121.325 208.17 121.598 207.681 121.809 207.089C122.02 206.491 122.125 205.894 122.125 205.296C122.125 204.499 121.926 203.881 121.527 203.441C121.135 203.002 120.654 202.782 120.086 202.782C119.711 202.782 119.356 202.879 119.022 203.072C118.694 203.26 118.375 203.564 118.064 203.986C117.754 204.408 117.505 204.921 117.317 205.524C117.13 206.128 117.036 206.682 117.036 207.186ZM130.176 206.86L131.784 206.72C131.86 207.364 132.036 207.895 132.312 208.311C132.593 208.721 133.026 209.055 133.612 209.312C134.198 209.564 134.857 209.69 135.59 209.69C136.24 209.69 136.814 209.594 137.312 209.4C137.811 209.207 138.18 208.943 138.42 208.609C138.666 208.27 138.789 207.9 138.789 207.502C138.789 207.098 138.672 206.746 138.438 206.447C138.203 206.143 137.816 205.888 137.277 205.683C136.932 205.548 136.167 205.34 134.983 205.059C133.8 204.771 132.971 204.502 132.496 204.25C131.881 203.928 131.421 203.529 131.116 203.055C130.817 202.574 130.668 202.038 130.668 201.446C130.668 200.796 130.853 200.189 131.222 199.627C131.591 199.059 132.13 198.628 132.839 198.335C133.548 198.042 134.336 197.896 135.203 197.896C136.158 197.896 136.999 198.051 137.726 198.361C138.458 198.666 139.021 199.117 139.413 199.715C139.806 200.312 140.017 200.989 140.046 201.745L138.411 201.868C138.323 201.054 138.024 200.438 137.515 200.022C137.011 199.606 136.264 199.398 135.273 199.398C134.242 199.398 133.489 199.589 133.015 199.97C132.546 200.345 132.312 200.799 132.312 201.332C132.312 201.795 132.479 202.176 132.812 202.475C133.141 202.773 133.996 203.081 135.379 203.397C136.768 203.708 137.72 203.98 138.235 204.215C138.985 204.561 139.539 205 139.896 205.533C140.254 206.061 140.433 206.67 140.433 207.361C140.433 208.047 140.236 208.694 139.844 209.304C139.451 209.907 138.886 210.379 138.147 210.719C137.415 211.053 136.589 211.22 135.669 211.22C134.503 211.22 133.524 211.05 132.733 210.71C131.948 210.37 131.33 209.86 130.879 209.181C130.434 208.495 130.199 207.722 130.176 206.86ZM146.04 211V199.636H141.795V198.115H152.008V199.636H147.745V211H146.04ZM151.015 211L155.963 198.115H157.8L163.073 211H161.131L159.628 207.098H154.24L152.825 211H151.015ZM154.732 205.709H159.101L157.756 202.141C157.346 201.057 157.041 200.166 156.842 199.469C156.678 200.295 156.446 201.115 156.147 201.93L154.732 205.709ZM166.378 211V199.636H162.133V198.115H172.346V199.636H168.083V211H166.378ZM173.901 211V198.115H175.483V202.738C176.222 201.883 177.153 201.455 178.278 201.455C178.97 201.455 179.57 201.593 180.08 201.868C180.59 202.138 180.953 202.513 181.17 202.993C181.393 203.474 181.504 204.171 181.504 205.085V211H179.922V205.085C179.922 204.294 179.749 203.72 179.403 203.362C179.063 202.999 178.58 202.817 177.953 202.817C177.484 202.817 177.042 202.94 176.626 203.187C176.216 203.427 175.923 203.755 175.747 204.171C175.571 204.587 175.483 205.161 175.483 205.894V211H173.901ZM183.921 211V198.115H185.503V202.738C186.241 201.883 187.173 201.455 188.298 201.455C188.989 201.455 189.59 201.593 190.1 201.868C190.609 202.138 190.973 202.513 191.189 202.993C191.412 203.474 191.523 204.171 191.523 205.085V211H189.941V205.085C189.941 204.294 189.769 203.72 189.423 203.362C189.083 202.999 188.6 202.817 187.973 202.817C187.504 202.817 187.062 202.94 186.646 203.187C186.235 203.427 185.942 203.755 185.767 204.171C185.591 204.587 185.503 205.161 185.503 205.894V211H183.921ZM200.031 207.581L201.587 207.783C201.417 208.855 200.98 209.696 200.277 210.306C199.58 210.909 198.722 211.211 197.702 211.211C196.425 211.211 195.396 210.795 194.617 209.963C193.844 209.125 193.457 207.927 193.457 206.368C193.457 205.36 193.624 204.479 193.958 203.723C194.292 202.967 194.799 202.401 195.479 202.026C196.164 201.646 196.908 201.455 197.711 201.455C198.725 201.455 199.554 201.713 200.198 202.229C200.843 202.738 201.256 203.465 201.438 204.408L199.899 204.646C199.753 204.019 199.492 203.547 199.117 203.23C198.748 202.914 198.3 202.756 197.772 202.756C196.976 202.756 196.328 203.043 195.83 203.617C195.332 204.186 195.083 205.088 195.083 206.324C195.083 207.578 195.323 208.489 195.804 209.058C196.284 209.626 196.911 209.91 197.685 209.91C198.306 209.91 198.824 209.72 199.24 209.339C199.656 208.958 199.92 208.372 200.031 207.581ZM203.389 211V209.198H205.19V211H203.389ZM214.041 207.581L215.597 207.783C215.427 208.855 214.99 209.696 214.287 210.306C213.59 210.909 212.731 211.211 211.712 211.211C210.435 211.211 209.406 210.795 208.627 209.963C207.854 209.125 207.467 207.927 207.467 206.368C207.467 205.36 207.634 204.479 207.968 203.723C208.302 202.967 208.809 202.401 209.488 202.026C210.174 201.646 210.918 201.455 211.721 201.455C212.734 201.455 213.563 201.713 214.208 202.229C214.853 202.738 215.266 203.465 215.447 204.408L213.909 204.646C213.763 204.019 213.502 203.547 213.127 203.23C212.758 202.914 212.31 202.756 211.782 202.756C210.985 202.756 210.338 203.043 209.84 203.617C209.342 204.186 209.093 205.088 209.093 206.324C209.093 207.578 209.333 208.489 209.813 209.058C210.294 209.626 210.921 209.91 211.694 209.91C212.315 209.91 212.834 209.72 213.25 209.339C213.666 208.958 213.93 208.372 214.041 207.581ZM216.361 206.333C216.361 204.604 216.842 203.324 217.803 202.492C218.605 201.801 219.584 201.455 220.738 201.455C222.021 201.455 223.07 201.877 223.885 202.721C224.699 203.559 225.106 204.719 225.106 206.201C225.106 207.402 224.925 208.349 224.562 209.04C224.204 209.726 223.68 210.259 222.988 210.64C222.303 211.021 221.553 211.211 220.738 211.211C219.432 211.211 218.374 210.792 217.565 209.954C216.763 209.116 216.361 207.909 216.361 206.333ZM217.987 206.333C217.987 207.528 218.248 208.425 218.77 209.022C219.291 209.614 219.947 209.91 220.738 209.91C221.523 209.91 222.177 209.611 222.698 209.014C223.22 208.416 223.48 207.505 223.48 206.28C223.48 205.126 223.217 204.253 222.689 203.661C222.168 203.063 221.518 202.765 220.738 202.765C219.947 202.765 219.291 203.061 218.77 203.652C218.248 204.244 217.987 205.138 217.987 206.333ZM226.97 211V201.666H228.385V202.976C228.678 202.519 229.067 202.152 229.554 201.877C230.04 201.596 230.594 201.455 231.215 201.455C231.906 201.455 232.472 201.599 232.911 201.886C233.356 202.173 233.67 202.574 233.852 203.09C234.59 202 235.551 201.455 236.734 201.455C237.66 201.455 238.372 201.713 238.87 202.229C239.368 202.738 239.617 203.526 239.617 204.593V211H238.044V205.12C238.044 204.487 237.991 204.033 237.886 203.758C237.786 203.477 237.602 203.251 237.332 203.081C237.062 202.911 236.746 202.826 236.383 202.826C235.727 202.826 235.182 203.046 234.748 203.485C234.314 203.919 234.098 204.616 234.098 205.577V211H232.516V204.936C232.516 204.232 232.387 203.705 232.129 203.354C231.871 203.002 231.449 202.826 230.863 202.826C230.418 202.826 230.005 202.943 229.624 203.178C229.249 203.412 228.977 203.755 228.807 204.206C228.637 204.657 228.552 205.308 228.552 206.157V211H226.97Z" fill="black"/>
<line x1="50" y1="0.5" x2="600" y2="0.5" stroke="#E2E0E0"/>
<rect x="192" y="31" width="266" height="43" rx="4" fill="#E8B74B"/>
<path d="M209.138 58L206.062 45.1152H208.725L210.667 53.9658L213.022 45.1152H216.116L218.375 54.1152L220.353 45.1152H222.972L219.843 58H217.083L214.517 48.3672L211.959 58H209.138ZM225.468 51.5137L223.227 51.1094C223.479 50.207 223.912 49.5391 224.527 49.1055C225.143 48.6719 226.057 48.4551 227.27 48.4551C228.371 48.4551 229.191 48.5869 229.73 48.8506C230.27 49.1084 230.647 49.4395 230.864 49.8438C231.087 50.2422 231.198 50.9775 231.198 52.0498L231.172 54.9326C231.172 55.7529 231.21 56.3594 231.286 56.752C231.368 57.1387 231.518 57.5547 231.734 58H229.291C229.227 57.8359 229.147 57.5928 229.054 57.2705C229.013 57.124 228.983 57.0273 228.966 56.9805C228.544 57.3906 228.093 57.6982 227.612 57.9033C227.132 58.1084 226.619 58.2109 226.074 58.2109C225.113 58.2109 224.354 57.9502 223.798 57.4287C223.247 56.9072 222.972 56.248 222.972 55.4512C222.972 54.9238 223.098 54.4551 223.35 54.0449C223.602 53.6289 223.953 53.3125 224.404 53.0957C224.861 52.873 225.518 52.6797 226.373 52.5156C227.527 52.2988 228.327 52.0967 228.772 51.9092V51.6631C228.772 51.1885 228.655 50.8516 228.421 50.6523C228.187 50.4473 227.744 50.3447 227.094 50.3447C226.654 50.3447 226.312 50.4326 226.065 50.6084C225.819 50.7783 225.62 51.0801 225.468 51.5137ZM228.772 53.5176C228.456 53.623 227.955 53.749 227.27 53.8955C226.584 54.042 226.136 54.1855 225.925 54.3262C225.603 54.5547 225.441 54.8447 225.441 55.1963C225.441 55.542 225.57 55.8408 225.828 56.0928C226.086 56.3447 226.414 56.4707 226.812 56.4707C227.258 56.4707 227.683 56.3242 228.087 56.0312C228.386 55.8086 228.582 55.5361 228.676 55.2139C228.74 55.0029 228.772 54.6016 228.772 54.0098V53.5176ZM237.922 48.666V50.6348H236.234V54.3965C236.234 55.1582 236.249 55.6035 236.278 55.7324C236.313 55.8555 236.387 55.958 236.498 56.04C236.615 56.1221 236.756 56.1631 236.92 56.1631C237.148 56.1631 237.479 56.084 237.913 55.9258L238.124 57.8418C237.55 58.0879 236.899 58.2109 236.173 58.2109C235.728 58.2109 235.326 58.1377 234.969 57.9912C234.611 57.8389 234.348 57.6455 234.178 57.4111C234.014 57.1709 233.899 56.8486 233.835 56.4443C233.782 56.1572 233.756 55.5771 233.756 54.7041V50.6348H232.622V48.666H233.756V46.8115L236.234 45.3701V48.666H237.922ZM247.774 51.4258L245.34 51.8652C245.258 51.3789 245.07 51.0127 244.777 50.7666C244.49 50.5205 244.115 50.3975 243.652 50.3975C243.037 50.3975 242.545 50.6113 242.176 51.0391C241.812 51.4609 241.631 52.1699 241.631 53.166C241.631 54.2734 241.815 55.0557 242.185 55.5127C242.56 55.9697 243.061 56.1982 243.688 56.1982C244.156 56.1982 244.54 56.0664 244.839 55.8027C245.138 55.5332 245.349 55.0732 245.472 54.4229L247.897 54.8359C247.646 55.9492 247.162 56.79 246.447 57.3584C245.732 57.9268 244.774 58.2109 243.573 58.2109C242.208 58.2109 241.118 57.7803 240.304 56.9189C239.495 56.0576 239.091 54.8652 239.091 53.3418C239.091 51.8008 239.498 50.6025 240.312 49.7471C241.127 48.8857 242.229 48.4551 243.617 48.4551C244.754 48.4551 245.656 48.7012 246.324 49.1934C246.998 49.6797 247.481 50.4238 247.774 51.4258ZM252.116 45.1152V49.8525C252.913 48.9209 253.865 48.4551 254.973 48.4551C255.541 48.4551 256.054 48.5605 256.511 48.7715C256.968 48.9824 257.311 49.252 257.539 49.5801C257.773 49.9082 257.932 50.2715 258.014 50.6699C258.102 51.0684 258.146 51.6865 258.146 52.5244V58H255.676V53.0693C255.676 52.0908 255.629 51.4697 255.535 51.2061C255.441 50.9424 255.274 50.7344 255.034 50.582C254.8 50.4238 254.504 50.3447 254.146 50.3447C253.736 50.3447 253.37 50.4443 253.048 50.6436C252.726 50.8428 252.488 51.1445 252.336 51.5488C252.189 51.9473 252.116 52.5391 252.116 53.3242V58H249.646V45.1152H252.116ZM265.757 58V45.2207H268.358V55.8291H274.827V58H265.757ZM276.673 47.4004V45.1152H279.143V47.4004H276.673ZM276.673 58V48.666H279.143V58H276.673ZM284.249 58L280.487 48.666H283.08L284.838 53.4297L285.348 55.0205C285.482 54.6162 285.567 54.3496 285.603 54.2207C285.685 53.957 285.772 53.6934 285.866 53.4297L287.642 48.666H290.182L286.473 58H284.249ZM297.107 55.0293L299.568 55.4424C299.252 56.3447 298.751 57.0332 298.065 57.5078C297.386 57.9766 296.533 58.2109 295.508 58.2109C293.885 58.2109 292.684 57.6807 291.904 56.6201C291.289 55.7705 290.981 54.6982 290.981 53.4033C290.981 51.8564 291.386 50.6465 292.194 49.7734C293.003 48.8945 294.025 48.4551 295.262 48.4551C296.65 48.4551 297.746 48.915 298.549 49.835C299.352 50.749 299.735 52.1523 299.7 54.0449H293.513C293.53 54.7773 293.729 55.3486 294.11 55.7588C294.491 56.1631 294.966 56.3652 295.534 56.3652C295.921 56.3652 296.246 56.2598 296.51 56.0488C296.773 55.8379 296.973 55.498 297.107 55.0293ZM297.248 52.5332C297.23 51.8184 297.046 51.2764 296.694 50.9072C296.343 50.5322 295.915 50.3447 295.411 50.3447C294.872 50.3447 294.427 50.541 294.075 50.9336C293.724 51.3262 293.551 51.8594 293.557 52.5332H297.248ZM306.758 58V45.1152H312.233C313.61 45.1152 314.609 45.2324 315.23 45.4668C315.857 45.6953 316.358 46.1055 316.733 46.6973C317.108 47.2891 317.296 47.9658 317.296 48.7275C317.296 49.6943 317.012 50.4941 316.443 51.127C315.875 51.7539 315.025 52.1494 313.895 52.3135C314.457 52.6416 314.92 53.002 315.283 53.3945C315.652 53.7871 316.147 54.4844 316.769 55.4863L318.342 58H315.23L313.35 55.1963C312.682 54.1943 312.225 53.5645 311.979 53.3066C311.732 53.043 311.472 52.8643 311.196 52.7705C310.921 52.6709 310.484 52.6211 309.887 52.6211H309.359V58H306.758ZM309.359 50.5645H311.284C312.532 50.5645 313.312 50.5117 313.622 50.4062C313.933 50.3008 314.176 50.1191 314.352 49.8613C314.527 49.6035 314.615 49.2812 314.615 48.8945C314.615 48.4609 314.498 48.1123 314.264 47.8486C314.035 47.5791 313.71 47.4092 313.288 47.3389C313.077 47.3096 312.444 47.2949 311.39 47.2949H309.359V50.5645ZM325.145 55.0293L327.605 55.4424C327.289 56.3447 326.788 57.0332 326.103 57.5078C325.423 57.9766 324.57 58.2109 323.545 58.2109C321.922 58.2109 320.721 57.6807 319.941 56.6201C319.326 55.7705 319.019 54.6982 319.019 53.4033C319.019 51.8564 319.423 50.6465 320.231 49.7734C321.04 48.8945 322.062 48.4551 323.299 48.4551C324.688 48.4551 325.783 48.915 326.586 49.835C327.389 50.749 327.772 52.1523 327.737 54.0449H321.55C321.567 54.7773 321.767 55.3486 322.147 55.7588C322.528 56.1631 323.003 56.3652 323.571 56.3652C323.958 56.3652 324.283 56.2598 324.547 56.0488C324.811 55.8379 325.01 55.498 325.145 55.0293ZM325.285 52.5332C325.268 51.8184 325.083 51.2764 324.731 50.9072C324.38 50.5322 323.952 50.3447 323.448 50.3447C322.909 50.3447 322.464 50.541 322.112 50.9336C321.761 51.3262 321.588 51.8594 321.594 52.5332H325.285ZM337.897 51.4258L335.463 51.8652C335.381 51.3789 335.193 51.0127 334.9 50.7666C334.613 50.5205 334.238 50.3975 333.775 50.3975C333.16 50.3975 332.668 50.6113 332.299 51.0391C331.936 51.4609 331.754 52.1699 331.754 53.166C331.754 54.2734 331.938 55.0557 332.308 55.5127C332.683 55.9697 333.184 56.1982 333.811 56.1982C334.279 56.1982 334.663 56.0664 334.962 55.8027C335.261 55.5332 335.472 55.0732 335.595 54.4229L338.021 54.8359C337.769 55.9492 337.285 56.79 336.57 57.3584C335.855 57.9268 334.897 58.2109 333.696 58.2109C332.331 58.2109 331.241 57.7803 330.427 56.9189C329.618 56.0576 329.214 54.8652 329.214 53.3418C329.214 51.8008 329.621 50.6025 330.436 49.7471C331.25 48.8857 332.352 48.4551 333.74 48.4551C334.877 48.4551 335.779 48.7012 336.447 49.1934C337.121 49.6797 337.604 50.4238 337.897 51.4258ZM339.207 53.2012C339.207 52.3809 339.409 51.5869 339.813 50.8193C340.218 50.0518 340.789 49.4658 341.527 49.0615C342.271 48.6572 343.101 48.4551 344.015 48.4551C345.427 48.4551 346.584 48.915 347.486 49.835C348.389 50.749 348.84 51.9062 348.84 53.3066C348.84 54.7188 348.383 55.8906 347.469 56.8223C346.561 57.748 345.415 58.2109 344.032 58.2109C343.177 58.2109 342.359 58.0176 341.58 57.6309C340.807 57.2441 340.218 56.6787 339.813 55.9346C339.409 55.1846 339.207 54.2734 339.207 53.2012ZM341.738 53.333C341.738 54.2588 341.958 54.9678 342.397 55.46C342.837 55.9521 343.379 56.1982 344.023 56.1982C344.668 56.1982 345.207 55.9521 345.641 55.46C346.08 54.9678 346.3 54.2529 346.3 53.3154C346.3 52.4014 346.08 51.6982 345.641 51.2061C345.207 50.7139 344.668 50.4678 344.023 50.4678C343.379 50.4678 342.837 50.7139 342.397 51.2061C341.958 51.6982 341.738 52.4072 341.738 53.333ZM353.146 58H350.677V48.666H352.971V49.9932C353.363 49.3662 353.715 48.9531 354.025 48.7539C354.342 48.5547 354.699 48.4551 355.098 48.4551C355.66 48.4551 356.202 48.6104 356.724 48.9209L355.959 51.0742C355.543 50.8047 355.156 50.6699 354.799 50.6699C354.453 50.6699 354.16 50.7666 353.92 50.96C353.68 51.1475 353.489 51.4902 353.349 51.9883C353.214 52.4863 353.146 53.5293 353.146 55.1172V58ZM366.356 58H364.062V56.6289C363.682 57.1621 363.23 57.5605 362.709 57.8242C362.193 58.082 361.672 58.2109 361.145 58.2109C360.072 58.2109 359.152 57.7803 358.385 56.9189C357.623 56.0518 357.242 54.8447 357.242 53.2979C357.242 51.7158 357.614 50.5146 358.358 49.6943C359.103 48.8682 360.043 48.4551 361.18 48.4551C362.223 48.4551 363.125 48.8887 363.887 49.7559V45.1152H366.356V58ZM359.765 53.1309C359.765 54.127 359.902 54.8477 360.178 55.293C360.576 55.9375 361.133 56.2598 361.848 56.2598C362.416 56.2598 362.899 56.0195 363.298 55.5391C363.696 55.0527 363.896 54.3291 363.896 53.3682C363.896 52.2959 363.702 51.5254 363.315 51.0566C362.929 50.582 362.434 50.3447 361.83 50.3447C361.244 50.3447 360.752 50.5791 360.354 51.0479C359.961 51.5107 359.765 52.2051 359.765 53.1309ZM374.205 55.0293L376.666 55.4424C376.35 56.3447 375.849 57.0332 375.163 57.5078C374.483 57.9766 373.631 58.2109 372.605 58.2109C370.982 58.2109 369.781 57.6807 369.002 56.6201C368.387 55.7705 368.079 54.6982 368.079 53.4033C368.079 51.8564 368.483 50.6465 369.292 49.7734C370.101 48.8945 371.123 48.4551 372.359 48.4551C373.748 48.4551 374.844 48.915 375.646 49.835C376.449 50.749 376.833 52.1523 376.798 54.0449H370.61C370.628 54.7773 370.827 55.3486 371.208 55.7588C371.589 56.1631 372.063 56.3652 372.632 56.3652C373.019 56.3652 373.344 56.2598 373.607 56.0488C373.871 55.8379 374.07 55.498 374.205 55.0293ZM374.346 52.5332C374.328 51.8184 374.144 51.2764 373.792 50.9072C373.44 50.5322 373.013 50.3447 372.509 50.3447C371.97 50.3447 371.524 50.541 371.173 50.9336C370.821 51.3262 370.648 51.8594 370.654 52.5332H374.346ZM387.38 58H385.086V56.6289C384.705 57.1621 384.254 57.5605 383.732 57.8242C383.217 58.082 382.695 58.2109 382.168 58.2109C381.096 58.2109 380.176 57.7803 379.408 56.9189C378.646 56.0518 378.266 54.8447 378.266 53.2979C378.266 51.7158 378.638 50.5146 379.382 49.6943C380.126 48.8682 381.066 48.4551 382.203 48.4551C383.246 48.4551 384.148 48.8887 384.91 49.7559V45.1152H387.38V58ZM380.788 53.1309C380.788 54.127 380.926 54.8477 381.201 55.293C381.6 55.9375 382.156 56.2598 382.871 56.2598C383.439 56.2598 383.923 56.0195 384.321 55.5391C384.72 55.0527 384.919 54.3291 384.919 53.3682C384.919 52.2959 384.726 51.5254 384.339 51.0566C383.952 50.582 383.457 50.3447 382.854 50.3447C382.268 50.3447 381.775 50.5791 381.377 51.0479C380.984 51.5107 380.788 52.2051 380.788 53.1309ZM394.842 45.1152H399.597C400.669 45.1152 401.486 45.1973 402.049 45.3613C402.805 45.584 403.452 45.9795 403.991 46.5479C404.53 47.1162 404.94 47.8135 405.222 48.6396C405.503 49.46 405.644 50.4736 405.644 51.6807C405.644 52.7412 405.512 53.6553 405.248 54.4229C404.926 55.3604 404.466 56.1191 403.868 56.6992C403.417 57.1387 402.808 57.4814 402.04 57.7275C401.466 57.9092 400.698 58 399.737 58H394.842V45.1152ZM397.443 47.2949V55.8291H399.386C400.112 55.8291 400.637 55.7881 400.959 55.7061C401.381 55.6006 401.729 55.4219 402.005 55.1699C402.286 54.918 402.515 54.5049 402.69 53.9307C402.866 53.3506 402.954 52.5625 402.954 51.5664C402.954 50.5703 402.866 49.8057 402.69 49.2725C402.515 48.7393 402.269 48.3232 401.952 48.0244C401.636 47.7256 401.234 47.5234 400.748 47.418C400.385 47.3359 399.673 47.2949 398.612 47.2949H397.443ZM413.246 55.0293L415.707 55.4424C415.391 56.3447 414.89 57.0332 414.204 57.5078C413.524 57.9766 412.672 58.2109 411.646 58.2109C410.023 58.2109 408.822 57.6807 408.043 56.6201C407.428 55.7705 407.12 54.6982 407.12 53.4033C407.12 51.8564 407.524 50.6465 408.333 49.7734C409.142 48.8945 410.164 48.4551 411.4 48.4551C412.789 48.4551 413.885 48.915 414.688 49.835C415.49 50.749 415.874 52.1523 415.839 54.0449H409.651C409.669 54.7773 409.868 55.3486 410.249 55.7588C410.63 56.1631 411.104 56.3652 411.673 56.3652C412.06 56.3652 412.385 56.2598 412.648 56.0488C412.912 55.8379 413.111 55.498 413.246 55.0293ZM413.387 52.5332C413.369 51.8184 413.185 51.2764 412.833 50.9072C412.481 50.5322 412.054 50.3447 411.55 50.3447C411.011 50.3447 410.565 50.541 410.214 50.9336C409.862 51.3262 409.689 51.8594 409.695 52.5332H413.387ZM417.676 48.666H419.952V49.9404C420.767 48.9502 421.736 48.4551 422.861 48.4551C423.459 48.4551 423.978 48.5781 424.417 48.8242C424.856 49.0703 425.217 49.4424 425.498 49.9404C425.908 49.4424 426.351 49.0703 426.825 48.8242C427.3 48.5781 427.807 48.4551 428.346 48.4551C429.031 48.4551 429.611 48.5957 430.086 48.877C430.561 49.1523 430.915 49.5596 431.149 50.0986C431.319 50.4971 431.404 51.1416 431.404 52.0322V58H428.935V52.665C428.935 51.7393 428.85 51.1416 428.68 50.8721C428.451 50.5205 428.1 50.3447 427.625 50.3447C427.279 50.3447 426.954 50.4502 426.649 50.6611C426.345 50.8721 426.125 51.1826 425.99 51.5928C425.855 51.9971 425.788 52.6387 425.788 53.5176V58H423.318V52.8848C423.318 51.9766 423.274 51.3906 423.187 51.127C423.099 50.8633 422.961 50.667 422.773 50.5381C422.592 50.4092 422.343 50.3447 422.026 50.3447C421.646 50.3447 421.303 50.4473 420.998 50.6523C420.693 50.8574 420.474 51.1533 420.339 51.54C420.21 51.9268 420.146 52.5684 420.146 53.4648V58H417.676V48.666ZM433.303 53.2012C433.303 52.3809 433.505 51.5869 433.909 50.8193C434.313 50.0518 434.885 49.4658 435.623 49.0615C436.367 48.6572 437.196 48.4551 438.11 48.4551C439.522 48.4551 440.68 48.915 441.582 49.835C442.484 50.749 442.936 51.9062 442.936 53.3066C442.936 54.7188 442.479 55.8906 441.564 56.8223C440.656 57.748 439.511 58.2109 438.128 58.2109C437.272 58.2109 436.455 58.0176 435.676 57.6309C434.902 57.2441 434.313 56.6787 433.909 55.9346C433.505 55.1846 433.303 54.2734 433.303 53.2012ZM435.834 53.333C435.834 54.2588 436.054 54.9678 436.493 55.46C436.933 55.9521 437.475 56.1982 438.119 56.1982C438.764 56.1982 439.303 55.9521 439.736 55.46C440.176 54.9678 440.396 54.2529 440.396 53.3154C440.396 52.4014 440.176 51.6982 439.736 51.2061C439.303 50.7139 438.764 50.4678 438.119 50.4678C437.475 50.4678 436.933 50.7139 436.493 51.2061C436.054 51.6982 435.834 52.4072 435.834 53.333Z" fill="white"/>
</g>
<defs>
<clipPath id="clip0_3_110">
<rect width="650" height="247" fill="white"/>
</clipPath>
</defs>
</svg>
